<svg width="956" height="816" viewBox="0 0 956 816" fill="none" xmlns="http://www.w3.org/2000/svg">
<path fill-rule="evenodd" clip-rule="evenodd" d="M269.276 50.9937C338.351 48.1104 408.651 30.4618 468.26 65.4826C545.37 110.786 645.657 175.987 632.624 264.466C619.427 354.056 488.317 356.338 417.165 412.355C362.061 455.738 338.842 541.628 269.276 550.523C195.904 559.905 128.716 509.587 78.0209 455.721C28.9713 403.604 -1.51305 336.018 0.0579442 264.466C1.5968 194.378 31.3071 124.986 86.2389 81.429C136.62 41.4802 205.035 53.6753 269.276 50.9937Z" fill="#FFEAEA"/>
<path fill-rule="evenodd" clip-rule="evenodd" d="M446.455 309.001C508.702 308.925 577.191 312.472 619.147 358.455C660.085 403.323 656.316 470.834 649.147 531.147C642.951 583.268 613.562 624.87 582.453 667.146C542.448 721.51 511.801 789.689 446.455 806.594C367.559 827.004 279.121 813.037 215.535 762.067C146.061 706.376 90.0196 619.26 102.837 531.147C114.957 447.828 203.477 404.588 274.185 358.877C326.375 325.136 384.308 309.077 446.455 309.001Z" fill="#CFB1E1" fill-opacity="0.15"/>
<path fill-rule="evenodd" clip-rule="evenodd" d="M628.434 2.32361C716.037 -16.1906 782.734 80.0111 843.106 146.134C899.749 208.172 955.664 276.8 955.742 360.807C955.82 444.871 904.525 518.056 843.504 575.877C784.357 631.923 709.589 663.638 628.434 670.952C537.68 679.13 433.649 684.42 370.762 618.478C308.469 553.16 306.984 447.339 332.655 360.807C353.299 291.221 442.475 277.028 488.669 221.042C545.911 151.664 540.434 20.9217 628.434 2.32361Z" fill="#BBCCED" fill-opacity="0.27"/>
</svg>
