<svg width="35" height="35" viewBox="0 0 35 35" fill="none" xmlns="http://www.w3.org/2000/svg">
<path d="M29.6323 12.5352C30.2847 13.5491 30.569 14.7564 30.4374 15.9549L31.3418 13.1484C32.0959 14.5315 32.0851 15.75 31.4568 18.2323L32.203 17.0361C32.2863 17.5969 32.2487 18.169 32.0928 18.7141C31.9368 19.2591 31.666 19.7645 31.2987 20.1963L32.308 19.251C31.4007 26.1616 25.943 28.3233 18.5989 28.3233M16.6766 28.2716C10.4927 27.9265 6.70132 25.8345 3.58352 21.6363L5.40804 22.1503C4.18594 21.4227 2.38873 19.379 2.93436 17.5063L5.39151 19.545C4.31822 17.888 3.00697 16.0239 3.31753 13.7364L5.40445 15.3165C5.64026 14.1552 6.12057 13.0573 6.81346 12.0959" stroke="black" stroke-width="1.25" stroke-linecap="round" stroke-linejoin="round"/>
<path d="M24.6943 20.1554L25.7446 21.4134L26.3225 20.0051L24.6943 20.1554ZM25.7079 22.8929C26.1248 23.588 26.3319 23.647 27.1902 23.5262C26.7816 23.7858 26.402 24.0885 26.058 24.4291C25.4872 25.1142 25.5073 26.2494 24.7963 26.7871C24.6111 26.9152 24.3827 26.9651 24.1609 26.9258C24.0502 26.9113 23.9438 26.8741 23.8483 26.8164C23.7528 26.7588 23.6702 26.682 23.6059 26.5908C23.2126 25.9388 23.5893 25.0625 23.4765 24.3091C23.4118 23.8734 23.1609 23.0244 23.1609 23.0244C24.1393 23.7031 25.0293 23.6412 25.7079 22.8929Z" stroke="black" stroke-width="1.25" stroke-linecap="round" stroke-linejoin="round"/>
<path d="M19.6915 19.3142C20.0496 19.3142 20.34 18.8787 20.34 18.3415C20.34 17.8044 20.0496 17.3689 19.6915 17.3689C19.3334 17.3689 19.0431 17.8044 19.0431 18.3415C19.0431 18.8787 19.3334 19.3142 19.6915 19.3142Z" stroke="black" stroke-width="1.25" stroke-linecap="round" stroke-linejoin="round"/>
<path d="M27.8321 19.322C28.1188 19.322 28.3512 18.9448 28.3512 18.4795C28.3512 18.0142 28.1188 17.637 27.8321 17.637C27.5455 17.637 27.3131 18.0142 27.3131 18.4795C27.3131 18.9448 27.5455 19.322 27.8321 19.322Z" stroke="black" stroke-width="1.25" stroke-linecap="round" stroke-linejoin="round"/>
<path d="M7.38286 7.64161C7.37732 6.07741 7.84933 4.54878 8.7358 3.26001C10.0712 3.56008 11.3408 4.10061 12.4826 4.85521M14.6271 6.79333C15.0472 7.2995 15.4233 7.84063 15.7514 8.41081M23.603 8.81267C23.7974 8.03026 24.0869 7.2746 24.465 6.56256M25.6598 4.87175C26.1307 4.33834 26.66 3.85944 27.2377 3.44404C27.758 3.94378 28.1786 4.5378 28.4771 5.19453M15.0605 7.3138C19.2545 6.46911 20.9144 6.73294 23.6979 7.96367" stroke="black" stroke-width="1.25" stroke-linecap="round" stroke-linejoin="round"/>
<path d="M7.95215 9.98581L10.5459 6.09593C12.287 3.48423 24.2378 2.67045 27.9752 6.40721L31.2167 9.64938L29.9198 10.9455L26.6784 7.70408C24.0659 5.09165 14.2036 5.47194 12.4912 8.04051L9.89745 11.9304L7.95215 9.98581Z" stroke="black" stroke-width="1.25" stroke-linecap="round" stroke-linejoin="round"/>
<path d="M13.1375 7.45196C13.7883 8.12615 14.1972 8.99708 14.3002 9.92844C14.4032 10.8598 14.1945 11.7991 13.7068 12.5992C13.2452 13.384 12.5167 13.9766 11.6543 14.2687C10.7919 14.5608 9.85316 14.5329 9.00963 14.1901C8.15712 13.8173 7.45575 13.1672 7.01956 12.3453C6.58338 11.5234 6.43802 10.5782 6.60712 9.66325C6.74492 8.75345 7.19589 7.92027 7.88226 7.30739C8.56862 6.69452 9.44735 6.34038 10.3669 6.30606M27.2722 5.74677C28.5273 4.86542 30.1017 5.27159 30.9852 6.7036C31.4168 7.43571 31.6306 8.2758 31.6013 9.12518C31.572 9.97455 31.3009 10.7979 30.8199 11.4986C30.628 11.8057 30.3715 12.0672 30.0682 12.2651C29.7649 12.4629 29.4221 12.5922 29.0637 12.644C28.7053 12.6958 28.3399 12.6689 27.993 12.565C27.6461 12.4612 27.326 12.283 27.0551 12.0428C26.4525 11.4551 26.0353 10.7038 25.8553 9.88155C25.6753 9.05935 25.7402 8.20241 26.0422 7.41674" stroke="black" stroke-width="1.25" stroke-linecap="round" stroke-linejoin="round"/>
<path d="M8.5833 14.0361L8.33385 15.4725L9.36185 15.7931L10.1296 14.4761M8.83491 15.7097C8.77241 16.182 8.76999 16.6602 8.82772 17.1331C9.01391 17.9066 9.93768 18.4558 9.92258 19.2509C9.88736 21.0834 7.38636 22.2098 7.21239 24.0337C6.96078 26.6827 10.0678 28.5971 9.7673 31.5978" stroke="black" stroke-width="1.25" stroke-linecap="round" stroke-linejoin="round"/>
<path d="M19.1689 22.8462C21.8544 22.8462 24.0315 20.6691 24.0315 17.9836C24.0315 15.2981 21.8544 13.1211 19.1689 13.1211C16.4834 13.1211 14.3064 15.2981 14.3064 17.9836C14.3064 20.6691 16.4834 22.8462 19.1689 22.8462Z" stroke="black" stroke-width="1.25" stroke-linecap="round" stroke-linejoin="round"/>
<path d="M18.6973 22.9043L18.5492 24.3564M12.5904 31.5985C12.6381 31.4681 12.6419 31.3256 12.6011 31.1928C12.5603 31.0601 12.4773 30.9443 12.3647 30.8631C12.1967 30.7574 11.9977 30.7119 11.8005 30.7341C11.6033 30.7563 11.4195 30.8449 11.2792 30.9853L10.74 31.5978M18.2703 26.1292L17.9662 27.687M17.0841 29.0623L15.3804 29.8789M14.0124 30.1118L12.1073 31.147M18.6829 23.8647C18.4528 23.847 18.2239 23.9124 18.0379 24.049C17.8519 24.1857 17.7211 24.3846 17.6693 24.6095L17.5723 25.7C17.5539 25.8817 17.5944 26.0645 17.6878 26.2214C17.7813 26.3783 17.9228 26.501 18.0913 26.5713C18.3362 26.5917 18.5804 26.5249 18.7809 26.3829C18.9815 26.2409 19.1255 26.0327 19.1876 25.7949L19.3213 24.8855C19.3444 24.6685 19.2941 24.45 19.1784 24.2649C19.0627 24.0798 18.8882 23.9389 18.6829 23.8647ZM17.2085 27.7007L16.6959 28.508C16.6089 28.6417 16.5671 28.7998 16.5768 28.959C16.5865 29.1183 16.6472 29.2701 16.7499 29.3922C16.9317 29.5059 17.1477 29.5519 17.3601 29.522C17.5724 29.4922 17.7674 29.3885 17.9109 29.229L18.3796 28.5777C18.485 28.4174 18.5332 28.2262 18.5163 28.035C18.4995 27.8439 18.4186 27.664 18.2868 27.5246C18.1156 27.4207 17.9129 27.3814 17.7152 27.4137C17.5175 27.446 17.3378 27.5477 17.2085 27.7007ZM14.9742 29.2219L14.0325 29.3872C13.7413 29.4375 13.3984 29.7265 13.4142 30.0212C13.4525 30.2323 13.5639 30.4231 13.7289 30.5601C13.8939 30.6971 14.102 30.7716 14.3164 30.7703L15.1144 30.6783C15.3038 30.6483 15.4775 30.5552 15.6075 30.4142C15.7374 30.2732 15.8159 30.0924 15.8304 29.9012C15.792 29.7045 15.6847 29.528 15.5277 29.4035C15.3707 29.279 15.1745 29.2145 14.9742 29.2219Z" stroke="black" stroke-width="1.25" stroke-linecap="round" stroke-linejoin="round"/>
</svg>
